<?xml version="1.0" encoding="utf-8"?>
<!-- Generator: Adobe Illustrator 22.0.0, SVG Export Plug-In . SVG Version: 6.00 Build 0)  -->
<svg version="1.1" id="Layer_1" xmlns="http://www.w3.org/2000/svg" xmlns:xlink="http://www.w3.org/1999/xlink" x="0px" y="0px"
	 viewBox="0 0 196.2 54.8" style="enable-background:new 0 0 196.2 54.8;" xml:space="preserve">
<style type="text/css">
	.st0{fill:#212121;}
</style>
<g>
	<path class="st0" d="M0,35.4V0h1.8v35.4H0z M5.4,40.6h4c1.5,0,2.7,0.3,3.4,0.9C13.6,42.1,14,43,14,44c0,0.7-0.2,1.3-0.5,1.9
		c-0.4,0.6-0.9,1-1.6,1.2c0.8,0.3,1.4,0.7,1.9,1.4c0.5,0.7,0.7,1.4,0.7,2.2c0,1.2-0.4,2.2-1.3,2.9c-0.8,0.7-2.1,1-3.9,1H5.4V40.6z
		 M9.1,46.4c2.2,0,3.3-0.7,3.3-2.2c0-0.6-0.3-1.2-0.8-1.6c-0.5-0.4-1.2-0.7-2.3-0.7H6.9v4.4H9.1z M9.6,53.2c2.2,0,3.2-0.9,3.2-2.6
		c0-1.9-1.2-2.8-3.7-2.8H6.9v5.5H9.6z M7.2,35.4V0H9v35.4H7.2z M10.8,35.4V0h3.6v35.4H10.8z"/>
	<path class="st0" d="M19.8,35.4V0h1.8v35.4H19.8z M23.4,35.4V0h1.8v35.4H23.4z M31.9,50.5h-4.5L26,54.5h-1.6l5.1-14.2h0.2l5.2,14.2
		h-1.6L31.9,50.5z M31.5,49.3L29.7,44l-1.9,5.3H31.5z M30.6,35.4V0h3.6v35.4H30.6z"/>
	<path class="st0" d="M39.6,35.4V0h3.6v35.4H39.6z M45.2,40.6h4.1c1.6,0,2.8,0.4,3.5,1.1c0.8,0.7,1.1,1.7,1.1,2.9
		c0,0.8-0.3,1.6-0.8,2.3c-0.5,0.7-1.2,1.2-2,1.4l3.2,6.2h-1.7l-3.1-6.1h-2.7v6.1h-1.6V40.6z M49.4,47c1,0,1.7-0.2,2.2-0.7
		c0.4-0.4,0.7-1,0.7-1.7c0-0.8-0.2-1.4-0.7-1.9c-0.5-0.4-1.2-0.7-2.2-0.7h-2.7V47H49.4z M48.6,35.4V0h1.8v35.4H48.6z M52.2,35.4V0
		h5.4v35.4H52.2z"/>
	<path class="st0" d="M59.4,35.4V0h1.8v35.4H59.4z M70.1,54.8c-1,0-2-0.3-2.8-0.8c-0.8-0.5-1.5-1.3-2-2.3c-0.5-1.1-0.7-2.4-0.7-4
		c0-1.7,0.3-3.1,0.8-4.1c0.5-1,1.2-1.8,2-2.3c0.8-0.4,1.7-0.7,2.6-0.7c1,0,1.9,0.2,2.6,0.7c0.7,0.5,1.3,1.1,1.6,2l-1.3,0.7L72.7,44
		l-0.1-0.1v-0.2c0-0.2-0.1-0.4-0.3-0.7c-0.3-0.4-0.7-0.8-1.1-1c-0.4-0.2-0.8-0.3-1.3-0.3c-1.2,0-2.1,0.5-2.8,1.6c-0.6,1-1,2.4-1,4.3
		c0,1.1,0.2,2.1,0.5,3.1c0.4,0.9,0.8,1.6,1.4,2c0.6,0.5,1.3,0.7,2,0.7c0.6,0,1.1-0.1,1.6-0.4c0.5-0.3,0.9-0.7,1.3-1.3l1.1,0.8
		c-0.5,0.8-1,1.3-1.6,1.7C71.7,54.6,71,54.8,70.1,54.8z M66.6,35.4V0h1.8v35.4H66.6z M73.8,35.4V0h3.6v35.4H73.8z"/>
	<path class="st0" d="M79.2,35.4V0H81v35.4H79.2z M89.1,54.8c-1.6,0-2.8-0.6-3.7-1.9c-0.9-1.2-1.3-3-1.3-5.3c0-2.2,0.4-3.9,1.3-5.2
		c0.9-1.2,2.1-1.9,3.7-1.9c1.6,0,2.8,0.6,3.7,1.9c0.9,1.3,1.3,3,1.3,5.2c0,2.3-0.4,4-1.3,5.3C91.9,54.2,90.7,54.8,89.1,54.8z
		 M89.1,53.4c1.1,0,1.9-0.5,2.5-1.4c0.6-1,0.9-2.4,0.9-4.3c0-1.8-0.3-3.2-0.9-4.2c-0.6-1-1.4-1.5-2.5-1.5c-1,0-1.9,0.5-2.5,1.5
		c-0.6,1-0.9,2.4-0.9,4.2c0,1.9,0.3,3.3,0.8,4.3C87.2,52.9,88,53.4,89.1,53.4z M86.4,35.4V0h5.4v35.4H86.4z M93.6,35.4V0h3.6v35.4
		H93.6z"/>
	<path class="st0" d="M99,35.4V0h1.8v35.4H99z M102.6,35.4V0h3.6v35.4H102.6z M104.5,40.6h3.2c1.2,0,2.1,0.2,2.7,0.5
		c0.7,0.3,1.3,0.8,1.7,1.4c0.9,1.2,1.4,2.9,1.4,5.1c-0.1,2.3-0.6,4-1.6,5.2c-1,1.2-2.5,1.8-4.5,1.7h-3V40.6z M107.4,53.3
		c3.1,0,4.6-1.9,4.6-5.6c0-1.9-0.3-3.3-1-4.3c-0.7-1-1.8-1.5-3.4-1.5H106v11.4H107.4z M111.6,35.4V0h1.8v35.4H111.6z"/>
	<path class="st0" d="M118.8,35.4V0h1.8v35.4H118.8z M124.4,40.6h8.5V42h-7.1v4.6h5.9V48h-5.9v5.2h7v1.4h-8.5V40.6z M126,35.4V0h3.6
		v35.4H126z M131.4,35.4V0h1.8v35.4H131.4z"/>
	<path class="st0" d="M138.6,35.4V0h1.8v35.4H138.6z M142.2,35.4V0h1.8v35.4H142.2z M150.7,50.5h-4.5l-1.4,4.1h-1.6l5.1-14.2h0.2
		l5.2,14.2h-1.6L150.7,50.5z M150.3,49.3l-1.8-5.3l-1.9,5.3H150.3z M149.4,35.4V0h3.6v35.4H149.4z"/>
	<path class="st0" d="M158.4,35.4V0h5.4v35.4H158.4z M164,40.6h4.4c1.5,0,2.6,0.4,3.3,1.1c0.8,0.7,1.1,1.7,1.1,2.8
		c0,1.1-0.4,2-1.1,2.8c-0.7,0.7-1.8,1.1-3.2,1.1h-2.9v6.1H164V40.6z M165.6,35.4V0h5.4v35.4H165.6z M168.4,47c1,0,1.7-0.2,2.2-0.7
		c0.5-0.4,0.7-1,0.7-1.7c0-0.8-0.2-1.4-0.7-1.8c-0.5-0.5-1.2-0.7-2.1-0.7h-2.8V47H168.4z M172.8,35.4V0h3.6v35.4H172.8z"/>
	<path class="st0" d="M178.2,35.4V0h3.6v35.4H178.2z M184.3,53.2h2.8V41.9h-2.6v-1.3h6.9v1.3h-2.8v11.3h2.9v1.3h-7.2V53.2z
		 M187.2,35.4V0h1.8v35.4H187.2z M194.4,35.4V0h1.8v35.4H194.4z"/>
</g>
</svg>
