<!-- Generated by IcoMoon.io -->
<svg version="1.1" xmlns="http://www.w3.org/2000/svg" width="448" height="448" viewBox="0 0 448 448">
<title></title>
<g id="icomoon-ignore">
</g>
<path d="M15.75 384h-15.75v-352h15.75v352zM31.5 383.75h-8v-351.75h8v351.75zM55 383.75h-7.75v-351.75h7.75v351.75zM94.25 383.75h-7.75v-351.75h7.75v351.75zM133.5 383.75h-15.5v-351.75h15.5v351.75zM165 383.75h-7.75v-351.75h7.75v351.75zM180.75 383.75h-7.75v-351.75h7.75v351.75zM196.5 383.75h-7.75v-351.75h7.75v351.75zM235.75 383.75h-15.75v-351.75h15.75v351.75zM275 383.75h-15.75v-351.75h15.75v351.75zM306.5 383.75h-15.75v-351.75h15.75v351.75zM338 383.75h-15.75v-351.75h15.75v351.75zM361.5 383.75h-15.75v-351.75h15.75v351.75zM408.75 383.75h-23.5v-351.75h23.5v351.75zM424.5 383.75h-8v-351.75h8v351.75zM448 384h-15.75v-352h15.75v352z"></path>
</svg>
