<svg xmlns="http://www.w3.org/2000/svg" width="16" height="16" viewBox="0 0 16 16">
  <path id="chain" d="M14.368,12.015a.931.931,0,0,0-.275-.666L12.054,9.309a.951.951,0,0,0-.666-.275.931.931,0,0,0-.706.314c.324.324.706.6.706,1.1a.942.942,0,0,1-.941.941c-.5,0-.774-.382-1.1-.706A.95.95,0,0,0,9.3,12.064l2.02,2.029a.942.942,0,0,0,.666.265.978.978,0,0,0,.666-.255l1.441-1.431A.928.928,0,0,0,14.368,12.015ZM7.476,5.1A.948.948,0,0,0,7.2,4.436L5.181,2.407a.951.951,0,0,0-.666-.275.984.984,0,0,0-.666.265L2.407,3.828a.934.934,0,0,0,0,1.323L4.446,7.191a.942.942,0,0,0,.666.265.922.922,0,0,0,.706-.3c-.324-.324-.706-.6-.706-1.1a.942.942,0,0,1,.941-.941c.5,0,.774.382,1.1.706A.946.946,0,0,0,7.476,5.1Zm8.774,6.912A2.8,2.8,0,0,1,15.417,14l-1.441,1.431a2.828,2.828,0,0,1-3.99-.019l-2.02-2.029a2.8,2.8,0,0,1-.814-1.99,2.872,2.872,0,0,1,.863-2.049l-.863-.863a2.84,2.84,0,0,1-4.039.039L1.074,6.485A2.816,2.816,0,0,1,1.083,2.5L2.525,1.064a2.828,2.828,0,0,1,3.99.019l2.02,2.029A2.8,2.8,0,0,1,9.348,5.1a2.872,2.872,0,0,1-.863,2.049l.863.863a2.84,2.84,0,0,1,4.039-.039l2.039,2.039a2.794,2.794,0,0,1,.824,2Z" transform="translate(-0.25 -0.25)" fill="#fff"/>
</svg>
