<svg xmlns="http://www.w3.org/2000/svg" width="17.176" height="20.038" viewBox="0 0 17.176 20.038">
  <path id="file-text-o" d="M16.415,4.249a3,3,0,0,1,.76,1.834V18.965A1.074,1.074,0,0,1,16.1,20.038H1.073A1.074,1.074,0,0,1,0,18.965V1.073A1.074,1.074,0,0,1,1.073,0H11.093a3,3,0,0,1,1.834.76ZM11.451,1.521v4.2h4.2a1.425,1.425,0,0,0-.246-.458l-3.5-3.5A1.425,1.425,0,0,0,11.451,1.521Zm4.294,17.086V7.157H11.093a1.074,1.074,0,0,1-1.073-1.073V1.431H1.431V18.607ZM4.294,8.946a.353.353,0,0,1,.358-.358h7.872a.353.353,0,0,1,.358.358v.716a.353.353,0,0,1-.358.358H4.652a.353.353,0,0,1-.358-.358Zm8.23,2.5a.353.353,0,0,1,.358.358v.716a.353.353,0,0,1-.358.358H4.652a.353.353,0,0,1-.358-.358v-.716a.353.353,0,0,1,.358-.358Zm0,2.863a.353.353,0,0,1,.358.358v.716a.353.353,0,0,1-.358.358H4.652a.353.353,0,0,1-.358-.358v-.716a.353.353,0,0,1,.358-.358Z" transform="translate(0 0)"/>
</svg>
