<svg xmlns="http://www.w3.org/2000/svg" width="17.643" height="15.438" viewBox="0 0 17.643 15.438">
  <g id="image" transform="translate(0 -32)">
    <path id="Path_4" data-name="Path 4" d="M16.538,33.1l0,0V46.333l0,0H1.1l0,0V33.1l0,0Zm0-1.1H1.1A1.106,1.106,0,0,0,0,33.1V46.335a1.106,1.106,0,0,0,1.1,1.1H16.54a1.106,1.106,0,0,0,1.1-1.1V33.1a1.106,1.106,0,0,0-1.1-1.1Z" fill="#fff"/>
    <path id="Path_5" data-name="Path 5" d="M323.308,97.654A1.654,1.654,0,1,1,321.654,96,1.654,1.654,0,0,1,323.308,97.654Z" transform="translate(-308.973 -61.795)" fill="#fff"/>
    <path id="Path_6" data-name="Path 6" d="M77.232,168.821H64v-2.205L67.859,160l4.411,5.513h1.1l3.859-3.308Z" transform="translate(-61.795 -123.589)" fill="#fff"/>
  </g>
</svg>
