<svg xmlns="http://www.w3.org/2000/svg" width="16.388" height="15.217" viewBox="0 0 16.388 15.217">
  <g id="linkedin2" transform="translate(0 0)">
    <path id="Path_1" data-name="Path 1" d="M12,12h3.239v1.66h.046a3.592,3.592,0,0,1,3.2-1.66c3.419,0,4.051,2.129,4.051,4.9v5.638H19.158v-5c0-1.192-.025-2.726-1.756-2.726-1.759,0-2.027,1.3-2.027,2.639v5.085H12Z" transform="translate(-6.147 -7.318)" fill="#fff"/>
    <path id="Path_2" data-name="Path 2" d="M2,12H5.512V22.535H2Z" transform="translate(-2 -7.318)" fill="#fff"/>
    <path id="Path_3" data-name="Path 3" d="M5.512,5.756A1.756,1.756,0,1,1,3.756,4,1.756,1.756,0,0,1,5.512,5.756Z" transform="translate(-2 -4)" fill="#fff"/>
  </g>
</svg>
