<svg xmlns="http://www.w3.org/2000/svg" width="19.5" height="18" viewBox="0 0 19.5 18">
  <path id="print" d="M4.5,18.5H15v-3H4.5Zm0-7.5H15V6.5H13.125A1.125,1.125,0,0,1,12,5.375V3.5H4.5Zm13.5.75a.75.75,0,1,0-.75.75A.755.755,0,0,0,18,11.75Zm1.5,0v4.875a.385.385,0,0,1-.375.375H16.5v1.875A1.125,1.125,0,0,1,15.375,20H4.125A1.125,1.125,0,0,1,3,18.875V17H.375A.385.385,0,0,1,0,16.625V11.75A2.265,2.265,0,0,1,2.25,9.5H3V3.125A1.125,1.125,0,0,1,4.125,2H12a3.1,3.1,0,0,1,1.922.8L15.7,4.578A3.1,3.1,0,0,1,16.5,6.5v3h.75a2.265,2.265,0,0,1,2.25,2.25Z" transform="translate(0 -2)" fill="#fff"/>
</svg>
