<svg xmlns="http://www.w3.org/2000/svg" width="18.7" height="15.192" viewBox="0 0 18.7 15.192">
  <path id="twitter" d="M18.694,5.8a7.561,7.561,0,0,1-2.2.6,3.857,3.857,0,0,0,1.687-2.122,7.718,7.718,0,0,1-2.436.931,3.84,3.84,0,0,0-6.537,3.5A10.888,10.888,0,0,1,1.3,4.7a3.842,3.842,0,0,0,1.187,5.12A3.836,3.836,0,0,1,.749,9.34v.047a3.836,3.836,0,0,0,3.079,3.761,3.841,3.841,0,0,1-1.011.135,3.941,3.941,0,0,1-.723-.07A3.849,3.849,0,0,0,5.676,15.88,7.7,7.7,0,0,1,.911,17.523a7.572,7.572,0,0,1-.917-.055,10.849,10.849,0,0,0,5.883,1.724A10.842,10.842,0,0,0,16.792,8.277c0-.168,0-.332-.011-.5A7.722,7.722,0,0,0,18.694,5.8Z" transform="translate(0.006 -4)" fill="#fff"/>
</svg>
